<?xml version="1.0" standalone="no"?>
<!DOCTYPE svg PUBLIC "-//W3C//DTD SVG 20010904//EN"
 "http://www.w3.org/TR/2001/REC-SVG-20010904/DTD/svg10.dtd">
<svg version="1.0" xmlns="http://www.w3.org/2000/svg"
 width="671.000000pt" height="372.000000pt" viewBox="0 0 671.000000 372.000000"
 preserveAspectRatio="xMidYMid meet">

<g transform="translate(0.000000,372.000000) scale(0.100000,-0.100000)"
fill="#000000" stroke="none">
<path d="M5450 2645 l-916 -916 -549 382 c-303 210 -573 397 -602 416 l-52 35
-178 -154 c-98 -85 -232 -201 -299 -259 -66 -57 -284 -246 -484 -419 -201
-173 -450 -389 -555 -480 -105 -91 -342 -295 -526 -455 -184 -159 -355 -304
-381 -321 -195 -132 -490 12 -515 251 -4 42 -1 63 16 99 32 64 93 123 164 157
52 24 74 29 142 29 100 0 178 -33 243 -104 29 -31 47 -44 55 -38 7 4 62 48
122 97 61 49 112 90 114 92 2 1 -3 11 -12 21 -23 25 -21 38 5 56 23 17 25 14
-36 86 -103 123 -302 210 -481 210 -285 0 -547 -188 -631 -454 -34 -107 -49
-290 -34 -395 32 -211 168 -400 355 -492 119 -58 186 -72 324 -67 215 9 283
45 585 308 117 102 325 282 462 400 343 297 1034 895 1299 1125 121 105 225
194 231 197 9 6 282 -178 854 -573 97 -67 108 -72 150 -69 89 6 107 7 283 8
l177 2 178 173 c301 293 858 833 1057 1027 l190 185 6 -105 c9 -162 53 -263
162 -377 33 -35 64 -63 68 -63 4 0 60 60 123 132 102 118 113 134 100 149 -19
21 -18 29 7 55 l20 22 -37 48 c-90 117 -146 304 -124 409 6 27 27 82 46 123
29 59 33 76 23 88 -10 12 -8 21 10 44 l22 30 -33 29 c-110 96 -205 171 -218
171 -8 0 -427 -412 -930 -915z"/>
<path d="M4440 1300 c-228 -62 -399 -269 -417 -507 -16 -210 118 -453 302
-546 124 -62 299 -78 425 -38 177 55 316 191 377 368 38 111 38 245 0 356 -46
133 -107 211 -226 289 -137 90 -309 119 -461 78z m298 -255 c77 -42 148 -123
168 -192 46 -160 -25 -322 -174 -395 -58 -29 -76 -33 -147 -33 -67 0 -89 4
-137 28 -64 31 -124 94 -159 165 -19 39 -24 63 -24 137 0 80 3 96 30 149 34
68 99 128 170 156 77 31 202 24 273 -15z"/>
<path d="M4100 1279 c-319 -74 -697 -265 -918 -465 l-62 -56 21 -26 c45 -58
241 -204 374 -279 198 -111 472 -212 649 -238 l45 -7 -72 74 c-120 125 -179
243 -198 399 -25 211 56 422 224 577 52 47 53 47 -63 21z"/>
<path d="M5052 1213 c136 -142 192 -278 192 -463 -1 -176 -67 -333 -196 -462
l-76 -76 36 5 c320 44 740 251 1015 500 l39 35 -24 25 c-63 67 -292 227 -440
306 -143 77 -395 170 -533 197 -33 6 -69 14 -80 17 -11 3 18 -33 67 -84z"/>
<path d="M6108 675 c-299 -288 -738 -501 -1178 -571 -157 -25 -432 -29 -600
-10 -161 19 -395 75 -540 130 -51 19 -95 34 -97 32 -3 -3 67 -35 142 -63 114
-44 375 -113 427 -113 15 0 39 -5 55 -11 35 -14 582 -15 609 -1 11 5 45 12 76
16 32 3 83 13 115 22 32 9 67 16 78 16 10 -1 24 3 30 7 5 5 24 11 40 15 95 22
376 140 460 194 22 14 59 38 82 54 23 15 45 28 51 28 5 0 17 9 27 20 10 11 23
20 29 20 6 0 34 20 63 45 28 25 55 45 60 45 4 0 46 39 92 86 73 73 83 87 70
99 -12 12 -25 4 -91 -60z"/>
<path d="M3550 325 c0 -7 61 -37 66 -33 2 3 -12 12 -31 21 -19 9 -35 15 -35
12z"/>
<path d="M3644 275 c22 -17 40 -20 32 -6 -3 5 -16 11 -28 14 -22 6 -22 5 -4
-8z"/>
</g>
</svg>
